# xmcd
#
# Track frame offsets: 
#        150
#        1502
#        18659
#        34181
#        49522
#        70923
#        98768
#        128845
#
# Disc length: 1992 seconds
#
# Revision: 3
# Processed by: cddbd v1.5.2PL0 Copyright (c) Steve Scherf et al.
# Submitted via: ExactAudioCopy v0.99pb5
#
DISCID=5907c608
DTITLE=Gigi D' Agostino - The Riddle
DYEAR=1999
DGENRE=Electronic
TTITLE0=Video Part
TTITLE1=Video Part
TTITLE2=The Riddle (Video Mix)
TTITLE3=The Riddle (Single Cut)
TTITLE4=The Riddle (Original Mix)
TTITLE5=The Riddle (Original Longer Mix)
TTITLE6=The Riddle (Instrumental Mix)
TTITLE7=Video Part
EXTD=
EXTT0=
EXTT1=
EXTT2=
EXTT3=
EXTT4=
EXTT5=
EXTT6=
EXTT7=
PLAYORDER=
